<svg xmlns="http://www.w3.org/2000/svg" width="23" height="23" viewBox="0 0 23 23">
    <g fill="none" fill-rule="evenodd">
        <path d="M0 0H23V23H0z"/>
        <path fill="#354052" fill-rule="nonzero" d="M15.577 6.245c.213 0 .347.064.4.19.057.181 0 .38-.143.506l-3.952 3.952-.258.258v4.659l-.014.009c-.246.148-1.42.78-1.742.933v-5.601l-.258-.257L5.658 6.94c-.143-.126-.198-.325-.14-.507.051-.125.185-.19.397-.19h9.662zm0-.878H5.915c-1.317 0-1.682 1.39-.878 2.195l3.952 3.953v5.275c-.026.223.044.445.193.612.149.167.362.262.586.26.155-.001.308-.037.448-.104.324-.15 1.574-.823 1.847-.988.26-.117.431-.373.44-.658v-4.397l3.952-3.953c.806-.804.439-2.195-.878-2.195z"/>
    </g>
</svg>
