<svg xmlns="http://www.w3.org/2000/svg" width="30" height="30" viewBox="0 0 30 30">
    <g fill="none" fill-rule="evenodd">
        <rect width="30" height="30" fill="#D4EEFD" rx="3"/>
        <path fill="#354052" fill-rule="nonzero" d="M21.317 8.146c.278 0 .454.083.521.246.076.238.003.498-.185.661l-5.155 5.156-.336.336v6.076l-.019.012c-.32.193-1.852 1.017-2.272 1.218v-7.306l-.336-.336L8.38 9.054c-.187-.165-.259-.424-.184-.662.068-.163.243-.246.52-.246h12.601zm0-1.146H8.716C6.997 7 6.522 8.815 7.57 9.864l5.155 5.155v6.882c-.034.29.057.58.251.798.195.217.473.341.765.34.202-.003.402-.05.585-.137.422-.197 2.053-1.074 2.409-1.288.34-.154.562-.487.573-.86V15.02l5.155-5.155C23.514 8.814 23.036 7 21.317 7z"/>
    </g>
</svg>
